<svg version="1.1" id="Layer_1" xmlns="http://www.w3.org/2000/svg" xmlns:xlink="http://www.w3.org/1999/xlink" x="0px" y="0px"
	 width="100%" viewBox="0 0 200 200" enable-background="new 0 0 200 200" xml:space="preserve">
<path fill="#F2F1EE" opacity="1.000000" stroke="none" 
	d="
M120.000000,201.000000 
	C80.024696,201.000000 40.549400,201.000000 1.037050,201.000000 
	C1.037050,134.399734 1.037050,67.799454 1.037050,1.099581 
	C67.558464,1.099581 134.117126,1.099581 200.837891,1.099581 
	C200.837891,67.666351 200.837891,134.333145 200.837891,201.000000 
	C174.133072,201.000000 147.316528,201.000000 120.000000,201.000000 
M142.005295,134.998657 
	C142.005295,134.998657 142.058502,135.025772 141.590897,135.193893 
	C141.295029,135.374908 141.092804,135.630127 140.793076,136.422302 
	C140.527847,136.615662 140.262619,136.809021 139.541275,137.264526 
	C139.390366,137.572449 139.239456,137.880356 138.986893,138.725342 
	C138.663803,139.154404 138.340698,139.583481 137.515106,140.376709 
	C137.385193,140.963165 137.255264,141.549622 137.084061,142.058151 
	C137.084061,142.058151 137.171967,142.051147 136.591339,142.427795 
	C136.620728,143.939423 136.650131,145.451065 136.801956,147.804001 
	C136.754410,149.216827 136.706863,150.629669 136.231705,152.708359 
	C136.161606,154.822067 135.666443,157.043243 136.164597,159.013260 
	C136.521530,160.424820 138.208099,161.500137 139.239777,162.831177 
	C139.239777,162.831177 139.212524,162.711868 139.336960,163.276794 
	C139.648987,163.479813 139.961014,163.682831 140.669281,164.028976 
	C140.920044,164.194595 141.066483,164.426193 141.355911,165.303818 
	C141.725052,165.481689 142.094177,165.659561 142.765167,165.846359 
	C142.765167,165.846359 142.984253,166.054199 142.999741,166.708847 
	C143.144028,167.163620 143.307388,168.021255 143.429886,168.015457 
	C149.967377,167.706177 156.501434,167.324112 163.361374,166.821411 
	C163.361374,166.821411 163.704163,166.891479 164.569611,166.943130 
	C165.373947,165.781845 166.847336,164.636505 166.875412,163.456757 
	C167.076767,154.996399 167.024200,146.528610 166.933884,138.064453 
	C166.922791,137.026093 166.210541,135.995193 165.674591,134.480347 
	C165.690247,134.313431 165.705887,134.146500 166.102493,133.804428 
	C165.879517,133.625961 165.656525,133.447510 165.136353,133.030151 
	C164.961075,132.832748 164.861206,132.602615 164.790970,131.529556 
	C159.076248,128.562653 153.561630,131.223923 147.772736,132.295349 
	C147.772736,132.295349 147.520279,132.198242 146.678558,132.087769 
	C145.490204,132.780350 144.301849,133.472916 143.067856,134.077255 
	C143.067856,134.077255 143.164932,134.098389 142.657532,134.242599 
	C142.445755,134.513718 142.233978,134.784821 142.005295,134.998657 
M44.412827,97.340584 
	C43.414188,99.045998 42.415554,100.751419 40.980099,102.965691 
	C39.396713,105.504433 37.664829,107.963936 36.259365,110.597626 
	C32.815296,117.051453 36.676849,123.848114 43.962963,124.080589 
	C48.613518,124.228973 53.275681,124.013580 58.477596,124.000351 
	C58.656250,124.035706 58.834908,124.071060 59.498058,124.644814 
	C61.351246,124.529556 63.204437,124.414299 65.687202,124.209869 
	C66.109489,124.234879 66.531776,124.259888 67.628822,124.762894 
	C73.876205,124.762894 80.123589,124.762894 86.370972,124.762894 
	C86.375069,124.367218 86.379166,123.971550 86.383263,123.575874 
	C85.509354,123.447639 84.635445,123.319405 83.100380,123.030899 
	C81.419228,122.331352 79.738075,121.631813 77.711075,120.391708 
	C76.419136,119.015121 75.127197,117.638527 73.666641,115.478363 
	C73.146912,109.647331 72.016396,103.787483 72.289749,97.993866 
	C72.533310,92.831673 74.330132,87.742767 75.722786,81.985580 
	C77.213127,79.342377 78.703468,76.699173 80.759102,73.721878 
	C83.875481,70.176819 86.991859,66.631767 90.788879,62.881069 
	C95.174179,61.573208 99.559471,60.265350 104.609772,59.127407 
	C110.738731,65.419266 116.867699,71.711121 123.081261,78.700027 
	C127.329651,85.323875 131.578033,91.947723 135.859528,99.248268 
	C140.491333,106.535927 145.123123,113.823578 150.128845,121.762512 
	C154.521469,124.814110 159.062057,124.890350 162.415359,121.968819 
	C165.862579,118.965454 166.459991,114.420250 163.676010,109.759682 
	C160.891617,105.098412 157.824860,100.605812 154.848373,95.568695 
	C154.734680,95.241936 154.509460,95.038841 154.010162,94.330109 
	C153.699905,94.036674 153.389664,93.743233 153.089432,92.778244 
	C149.144196,87.145576 145.198975,81.512909 141.247910,75.109810 
	C136.513184,67.041664 131.778442,58.973511 126.962898,50.203003 
	C120.115799,39.344028 113.268700,28.485052 106.015778,17.025675 
	C102.405151,14.401569 98.800240,13.856510 94.625732,17.413452 
	C88.181129,27.244780 81.688248,37.045109 75.336830,46.936272 
	C74.205597,48.697960 73.661415,50.836617 72.429207,53.098866 
	C72.276108,53.400555 72.123016,53.702244 72.009872,54.013432 
	C72.009872,54.013432 72.017151,53.973011 71.483376,54.104736 
	C71.295799,54.409008 71.108223,54.713280 70.849213,55.021210 
	C70.849213,55.021210 70.798119,55.071274 70.188202,55.510670 
	C68.090370,58.986042 65.992538,62.461414 63.274693,66.236206 
	C60.356022,71.564774 57.437351,76.893341 53.902386,82.626648 
	C52.263062,85.422012 50.623737,88.217369 48.314518,91.138916 
	C47.194523,93.079651 46.074528,95.020378 44.412827,97.340584 
M144.359146,183.453049 
	C145.238068,183.316010 146.116989,183.178970 147.035812,182.187820 
	C147.343445,180.140915 147.854340,178.098068 147.895172,176.045853 
	C147.928589,174.365936 148.877594,171.310593 144.610214,172.926575 
	C144.610214,172.926575 144.166183,172.933060 143.675385,172.372498 
	C143.782730,175.909698 143.890076,179.446915 144.359146,183.453049 
M161.897354,171.453384 
	C161.206421,171.959702 160.515488,172.466034 159.081894,173.217178 
	C158.773041,176.350311 158.056366,179.523636 158.359268,182.596466 
	C158.477722,183.798233 160.885559,184.774323 162.250687,185.853180 
	C162.839737,185.059097 163.428787,184.265015 164.270157,183.068192 
	C164.491196,182.838287 164.673828,182.581116 164.917404,181.446014 
	C164.917404,178.195084 164.917404,174.944153 164.917404,171.453094 
	C164.296478,171.570526 163.237000,171.770905 161.897354,171.453384 
M39.863384,179.567902 
	C39.818916,180.710571 39.360611,182.123688 39.870552,182.904053 
	C40.230801,183.455322 42.237442,183.603363 42.905834,183.111572 
	C43.754585,182.487076 44.552528,180.940506 44.389462,179.953979 
	C43.902149,177.005814 42.935314,174.136902 42.153847,171.230042 
	C37.894432,172.919983 37.828190,173.465363 40.791874,179.147049 
	C40.791874,179.147049 40.438496,179.412903 39.863384,179.567902 
M94.740700,165.728470 
	C94.844849,164.482208 94.948997,163.235931 95.248787,161.070694 
	C95.258842,155.795639 95.374527,150.518112 95.251671,145.246155 
	C95.104919,138.948715 99.882729,135.646881 106.203423,138.708557 
	C107.470917,141.164108 109.564651,143.532501 109.834763,146.093262 
	C110.405746,151.506241 110.050392,157.019867 110.019882,162.491898 
	C110.007439,164.722946 109.892494,167.502502 112.990623,166.794952 
	C114.606857,166.425858 116.776993,164.013474 116.902359,162.385727 
	C117.359383,156.452164 117.260368,150.451401 116.992844,144.492935 
	C116.694130,137.839874 112.781227,133.366058 106.446251,131.766663 
	C99.923141,130.119781 94.098747,132.385941 90.237022,138.159729 
	C90.111107,138.664444 89.985191,139.169159 89.241211,140.208603 
	C88.828537,147.948761 88.289963,155.686554 88.143745,163.431747 
	C88.122681,164.547760 89.989571,165.699402 91.637909,166.972473 
	C92.420387,166.609558 93.202866,166.246643 94.740700,165.728470 
M53.539249,131.990814 
	C49.267548,132.968018 44.392181,132.958176 40.848354,135.125519 
	C33.196785,139.805099 32.672615,158.465607 39.418087,164.501541 
	C43.669147,168.305450 49.445988,168.333984 54.892620,165.184113 
	C57.932106,165.743057 60.421272,166.979462 61.944321,166.236176 
	C63.177666,165.634293 63.689957,162.665558 63.754723,160.721100 
	C63.970070,154.255875 63.848843,147.779099 63.839169,141.306778 
	C63.823170,130.600937 64.552528,132.098267 53.539249,131.990814 
M84.828438,138.531723 
	C85.449760,137.017639 86.683075,135.408249 86.467628,134.024460 
	C86.333969,133.166016 84.032555,132.145554 82.652527,132.063202 
	C74.755333,131.592010 69.584015,136.109100 69.211258,144.019928 
	C68.914948,150.308334 69.188766,156.622086 69.127968,162.923782 
	C69.101410,165.676544 70.477440,167.309006 73.013374,166.578323 
	C74.334213,166.197754 75.965775,164.142563 76.060471,162.748901 
	C76.419449,157.465958 76.157425,152.143661 76.222481,146.837219 
	C76.300766,140.451752 77.686310,139.051514 84.828438,138.531723 
M123.293083,160.233795 
	C123.290619,160.732895 123.292137,161.232056 123.284996,161.731079 
	C123.247360,164.360458 123.264038,166.850494 127.008148,166.826538 
	C130.766739,166.802505 130.660522,164.304443 130.650787,161.678009 
	C130.619934,153.359756 130.651245,145.041275 130.636932,136.722931 
	C130.632782,134.313217 130.643829,132.003708 127.150414,131.916443 
	C123.435326,131.823639 123.256859,134.134094 123.268265,136.837860 
	C123.299820,144.324371 123.288620,151.811081 123.293083,160.233795 
M55.492588,178.236389 
	C56.552868,179.996643 57.613148,181.756882 58.673420,183.517136 
	C59.727489,181.586090 60.840950,179.683746 61.796516,177.705139 
	C62.055790,177.168274 62.045959,176.308319 61.799877,175.757355 
	C61.109421,174.211441 60.231255,172.749359 59.427132,171.254211 
	C58.200203,172.343704 56.795616,173.297882 55.820095,174.578842 
	C55.320415,175.234955 55.588165,176.475525 55.492588,178.236389 
M106.367401,174.119766 
	C105.947075,173.353180 105.526756,172.586594 105.106438,171.819992 
	C104.807228,171.962402 104.508026,172.104797 104.208824,172.247192 
	C104.896774,175.965881 105.584732,179.684555 106.448990,184.356247 
	C109.049904,181.326294 108.127304,176.090530 113.636536,178.246658 
	C111.869286,175.443787 110.606987,173.441772 109.488167,171.667313 
	C108.053169,173.083298 107.187325,173.937683 106.367401,174.119766 
M126.033676,175.746689 
	C125.592285,178.112137 125.150887,180.477600 124.788223,182.421143 
	C127.053268,182.421143 128.879089,182.421143 130.913925,182.421143 
	C130.406219,179.769913 131.516617,175.832901 126.033676,175.746689 
z"/>
<path fill="#2E639E" opacity="1.000000" stroke="none" 
	d="
M54.014286,131.990967 
	C64.552528,132.098267 63.823170,130.600937 63.839169,141.306778 
	C63.848843,147.779099 63.970070,154.255875 63.754723,160.721100 
	C63.689957,162.665558 63.177666,165.634293 61.944321,166.236176 
	C60.421272,166.979462 57.932106,165.743057 54.892620,165.184113 
	C49.445988,168.333984 43.669147,168.305450 39.418087,164.501541 
	C32.672615,158.465607 33.196785,139.805099 40.848354,135.125519 
	C44.392181,132.958176 49.267548,132.968018 54.014286,131.990967 
M42.040825,154.909775 
	C42.591770,158.816452 44.904217,160.931122 48.782848,160.827713 
	C52.971157,160.716064 55.915245,158.323853 56.315121,154.213501 
	C56.791874,149.312881 56.427460,144.330444 56.427460,139.421661 
	C45.232819,136.794083 41.013348,141.278900 42.000858,150.536942 
	C42.123863,151.690125 42.019539,152.867523 42.040825,154.909775 
z"/>
<path fill="#2F659F" opacity="1.000000" stroke="none" 
	d="
M163.704163,166.891479 
	C163.704163,166.891479 163.361374,166.821411 162.850861,166.781708 
	C160.654312,166.000992 158.968292,165.259979 157.217651,164.490570 
	C152.940552,168.274750 148.017197,167.634705 142.984253,166.054199 
	C142.984253,166.054199 142.765167,165.846359 142.455811,165.583130 
	C141.800491,165.121201 141.454529,164.922485 141.108566,164.723755 
	C141.066483,164.426193 140.920044,164.194595 140.373566,163.696136 
	C139.789413,163.146149 139.500961,162.929016 139.212524,162.711868 
	C139.212524,162.711868 139.239777,162.831177 139.167480,162.419403 
	C138.283234,158.685928 137.471283,155.364212 136.659317,152.042496 
	C136.706863,150.629669 136.754410,149.216827 136.837662,146.982666 
	C136.972900,144.791260 137.072433,143.421204 137.171967,142.051147 
	C137.171967,142.051147 137.084061,142.058151 137.341858,141.907959 
	C137.738983,141.176010 137.878296,140.594284 138.017609,140.012543 
	C138.340698,139.583481 138.663803,139.154404 139.264175,138.325348 
	C139.693436,137.617691 139.845413,137.310043 139.997391,137.002380 
	C140.262619,136.809021 140.527847,136.615662 141.138031,136.132584 
	C141.674820,135.570496 141.866653,135.298141 142.058502,135.025772 
	C142.058502,135.025772 142.005295,134.998657 142.272873,134.962860 
	C142.748611,134.650833 142.956772,134.374603 143.164932,134.098389 
	C143.164932,134.098389 143.067856,134.077255 143.431580,134.059845 
	C145.036972,133.427719 146.278625,132.812973 147.520279,132.198242 
	C147.520279,132.198242 147.772736,132.295349 148.347519,132.231567 
	C154.227112,132.225128 159.531937,132.282455 164.836746,132.339767 
	C164.861206,132.602615 164.961075,132.832748 165.300201,133.349976 
	C165.464050,133.669800 165.721512,133.979584 165.721512,133.979584 
	C165.705887,134.146500 165.690247,134.313431 165.591660,135.095520 
	C165.467911,144.300934 165.520401,152.893478 165.311081,161.479630 
	C165.266815,163.295563 164.264862,165.088135 163.704163,166.891479 
M155.587479,158.977051 
	C155.771484,158.678635 155.955490,158.380219 156.039886,158.057312 
	C156.039886,158.057312 156.102615,158.138489 156.890503,158.016159 
	C160.837875,154.531891 158.340164,150.032730 158.543091,146.061325 
	C158.959579,137.910385 158.022125,137.339066 149.997604,138.861664 
	C149.248657,139.003769 148.570389,139.518204 148.011719,139.892914 
	C148.011719,139.892914 147.868286,139.830566 147.150742,139.984924 
	C141.710617,145.168304 143.738403,151.356842 145.257370,157.916031 
	C147.899231,159.764206 150.398041,162.255707 154.499191,159.855484 
	C154.704514,159.595276 154.909836,159.335068 155.036377,159.028229 
	C155.036377,159.028229 155.063660,159.115601 155.587479,158.977051 
z"/>
<path fill="#F0AE25" opacity="1.000000" stroke="none" 
	d="
M122.996666,78.002975 
	C116.867699,71.711121 110.738731,65.419266 104.186600,58.716888 
	C100.464142,56.283566 97.164848,54.260757 94.297997,52.167664 
	C96.482101,52.064598 98.233765,52.031822 100.059387,52.358299 
	C103.099617,54.310417 105.963921,56.161644 109.074341,57.389336 
	C110.677444,58.022091 112.718422,57.545471 114.561546,57.570122 
	C113.871574,55.371437 113.223862,53.158215 112.474495,50.979965 
	C112.076309,49.822552 110.962891,48.652950 111.103157,47.614597 
	C111.626686,43.739136 112.732246,39.940239 113.215530,36.062279 
	C113.454811,34.142262 113.555550,31.271114 112.436897,30.285677 
	C108.631790,26.933710 107.849716,22.252203 106.054863,17.956732 
	C106.176620,17.845976 106.421600,17.626076 106.421600,17.626076 
	C113.268700,28.485052 120.115799,39.344028 126.989601,50.982162 
	C125.107803,57.299255 129.717468,63.471268 125.380829,68.806152 
	C125.208267,69.018440 125.505890,69.783958 125.773064,70.156380 
	C128.619339,74.123779 125.410378,75.917725 122.996666,78.002975 
z"/>
<path fill="#F1A223" opacity="1.000000" stroke="none" 
	d="
M141.253754,75.880249 
	C145.198975,81.512909 149.144196,87.145576 153.164581,93.434166 
	C153.550720,94.379860 153.861740,94.669632 154.172745,94.959396 
	C154.509460,95.038841 154.734680,95.241936 154.618225,96.077164 
	C154.388062,98.807449 154.388062,101.029274 154.388062,102.147926 
	C151.932739,105.318092 149.977203,107.842964 147.848831,110.591011 
	C148.770325,111.860046 150.314423,113.025551 150.316376,114.193611 
	C150.320160,116.471512 154.409546,119.258537 149.754929,121.111237 
	C145.123123,113.823578 140.491333,106.535927 135.866852,98.511810 
	C135.755020,96.494957 135.423706,95.191612 135.559280,93.938789 
	C135.875946,91.012283 137.154205,87.988869 136.700089,85.225388 
	C135.954605,80.688820 137.794693,78.046059 141.253754,75.880249 
z"/>
<path fill="#F0BA1F" opacity="1.000000" stroke="none" 
	d="
M99.985428,51.999046 
	C98.233765,52.031822 96.482101,52.064598 94.306366,52.147560 
	C93.882294,52.197742 93.903542,52.214409 93.827515,51.969208 
	C93.196022,51.718624 92.640556,51.713242 91.697342,51.680832 
	C85.016350,49.803280 78.898186,50.770111 72.846161,52.801212 
	C73.661415,50.836617 74.205597,48.697960 75.336830,46.936272 
	C81.688248,37.045109 88.181129,27.244780 95.293335,17.218954 
	C96.971718,17.015223 97.982498,17.005987 98.981651,17.379114 
	C97.725113,20.431126 95.804146,23.000505 95.389923,25.793356 
	C94.728569,30.252428 95.678238,34.978565 94.823616,39.373375 
	C93.860878,44.324100 94.118874,47.791977 99.687035,49.214867 
	C100.003021,49.295612 99.895721,51.032795 99.985428,51.999046 
z"/>
<path fill="#F1A726" opacity="1.000000" stroke="none" 
	d="
M141.250824,75.495026 
	C137.794693,78.046059 135.954605,80.688820 136.700089,85.225388 
	C137.154205,87.988869 135.875946,91.012283 135.559280,93.938789 
	C135.423706,95.191612 135.755020,96.494957 135.850311,98.173462 
	C131.578033,91.947723 127.329651,85.323875 123.038963,78.351501 
	C125.410378,75.917725 128.619339,74.123779 125.773064,70.156380 
	C125.505890,69.783958 125.208267,69.018440 125.380829,68.806152 
	C129.717468,63.471268 125.107803,57.299255 127.030014,51.333344 
	C131.778442,58.973511 136.513184,67.041664 141.250824,75.495026 
z"/>
<path fill="#EAB92A" opacity="1.000000" stroke="none" 
	d="
M75.441467,82.621513 
	C74.330132,87.742767 72.533310,92.831673 72.289749,97.993866 
	C72.016396,103.787483 73.146912,109.647331 73.501343,116.094162 
	C69.700478,117.310173 68.429153,119.534180 68.797829,123.117760 
	C68.334091,123.370529 68.135483,123.586792 67.727066,123.938843 
	C67.287498,124.106117 67.120781,124.195503 66.954063,124.284889 
	C66.531776,124.259888 66.109489,124.234879 64.976906,124.134933 
	C63.171165,123.974411 62.075718,123.888817 60.886589,123.677193 
	C60.481747,123.377190 60.216671,123.442436 59.741123,123.807968 
	C59.327560,123.948151 59.170559,124.027283 59.013561,124.106407 
	C58.834908,124.071060 58.656250,124.035706 58.213020,123.746483 
	C57.948441,123.492615 57.979805,123.024910 57.983536,122.728233 
	C57.688972,121.950882 57.390678,121.470200 56.905396,120.830368 
	C56.718407,120.671219 56.280872,120.448189 56.324764,120.309464 
	C56.368656,120.170738 56.166645,119.961281 56.197094,119.545609 
	C56.856079,115.789825 57.484615,112.449730 58.095306,109.108093 
	C58.077457,109.106567 58.099529,109.087189 58.392166,108.944633 
	C59.270252,107.674118 59.855698,106.546150 60.437531,105.383560 
	C60.433914,105.348923 60.365200,105.337547 60.613468,105.206512 
	C60.932411,104.723251 61.003086,104.371033 61.251167,103.722610 
	C64.268890,98.910172 67.109207,94.393929 70.240562,89.720932 
	C71.781281,87.418251 73.030952,85.272316 74.498711,83.117050 
	C74.968109,82.960205 75.209671,82.798141 75.441467,82.621513 
z"/>
<path fill="#30659E" opacity="1.000000" stroke="none" 
	d="
M84.431030,138.606277 
	C77.686310,139.051514 76.300766,140.451752 76.222481,146.837219 
	C76.157425,152.143661 76.419449,157.465958 76.060471,162.748901 
	C75.965775,164.142563 74.334213,166.197754 73.013374,166.578323 
	C70.477440,167.309006 69.101410,165.676544 69.127968,162.923782 
	C69.188766,156.622086 68.914948,150.308334 69.211258,144.019928 
	C69.584015,136.109100 74.755333,131.592010 82.652527,132.063202 
	C84.032555,132.145554 86.333969,133.166016 86.467628,134.024460 
	C86.683075,135.408249 85.449760,137.017639 84.431030,138.606277 
z"/>
<path fill="#F19C24" opacity="1.000000" stroke="none" 
	d="
M149.941895,121.436874 
	C154.409546,119.258537 150.320160,116.471512 150.316376,114.193611 
	C150.314423,113.025551 148.770325,111.860046 147.848831,110.591011 
	C149.977203,107.842964 151.932739,105.318092 154.388062,102.147926 
	C154.388062,101.029274 154.388062,98.807449 154.634949,96.312454 
	C157.824860,100.605812 160.891617,105.098412 163.676010,109.759682 
	C166.459991,114.420250 165.862579,118.965454 162.415359,121.968819 
	C159.062057,124.890350 154.521469,124.814110 149.941895,121.436874 
z"/>
<path fill="#3E70A6" opacity="1.000000" stroke="none" 
	d="
M123.293701,159.765747 
	C123.288620,151.811081 123.299820,144.324371 123.268265,136.837860 
	C123.256859,134.134094 123.435326,131.823639 127.150414,131.916443 
	C130.643829,132.003708 130.632782,134.313217 130.636932,136.722931 
	C130.651245,145.041275 130.619934,153.359756 130.650787,161.678009 
	C130.660522,164.304443 130.766739,166.802505 127.008148,166.826538 
	C123.264038,166.850494 123.247360,164.360458 123.284996,161.731079 
	C123.292137,161.232056 123.290619,160.732895 123.293701,159.765747 
z"/>
<path fill="#135487" opacity="1.000000" stroke="none" 
	d="
M69.949524,89.877693 
	C67.109207,94.393929 64.268890,98.910172 61.012577,103.863647 
	C60.519455,104.646439 60.442329,104.991997 60.365204,105.337547 
	C60.365200,105.337547 60.433914,105.348923 60.044098,105.305344 
	C59.136028,106.536903 58.617779,107.812042 58.099529,109.087189 
	C58.099529,109.087189 58.077457,109.106567 57.746326,109.059265 
	C56.946289,109.012878 56.477383,109.013786 55.860134,108.676956 
	C55.629066,104.257545 55.631977,100.171844 55.440956,96.095238 
	C55.224064,91.466560 54.833660,86.846001 54.518684,82.221916 
	C57.437351,76.893341 60.356022,71.564774 63.865852,66.335678 
	C64.186935,69.996361 64.854149,73.992302 63.447006,77.026108 
	C60.718964,82.907806 62.824017,88.092995 63.436802,94.164955 
	C66.097534,92.413422 68.023529,91.145554 69.949524,89.877693 
z"/>
<path fill="#2B609A" opacity="1.000000" stroke="none" 
	d="
M90.695793,137.894882 
	C94.098747,132.385941 99.923141,130.119781 106.446251,131.766663 
	C112.781227,133.366058 116.694130,137.839874 116.992844,144.492935 
	C117.260368,150.451401 117.359383,156.452164 116.902359,162.385727 
	C116.776993,164.013474 114.606857,166.425858 112.990623,166.794952 
	C109.892494,167.502502 110.007439,164.722946 110.019882,162.491898 
	C110.050392,157.019867 110.405746,151.506241 109.834763,146.093262 
	C109.564651,143.532501 107.470917,141.164108 106.373184,138.338928 
	C107.934258,137.429962 109.325569,136.890625 110.716873,136.351273 
	C110.658958,135.820831 110.601044,135.290405 110.543129,134.759964 
	C108.249786,134.466080 105.829765,133.561722 103.689552,134.005814 
	C99.279190,134.920929 95.018227,136.556015 90.695793,137.894882 
z"/>
<path fill="#165B8E" opacity="1.000000" stroke="none" 
	d="
M70.240562,89.720932 
	C68.023529,91.145554 66.097534,92.413422 63.436802,94.164955 
	C62.824017,88.092995 60.718964,82.907806 63.447006,77.026108 
	C64.854149,73.992302 64.186935,69.996361 64.175858,66.185974 
	C65.992538,62.461414 68.090370,58.986042 70.542007,55.714226 
	C73.705475,59.112019 71.058144,62.364670 71.020432,65.592560 
	C70.955849,71.119392 71.002594,76.647537 71.002594,82.712830 
	C71.390594,82.761780 72.835609,82.944084 74.280632,83.126389 
	C73.030952,85.272316 71.781281,87.418251 70.240562,89.720932 
z"/>
<path fill="#124A81" opacity="1.000000" stroke="none" 
	d="
M54.210533,82.424286 
	C54.833660,86.846001 55.224064,91.466560 55.440956,96.095238 
	C55.631977,100.171844 55.629066,104.257545 55.847916,109.062935 
	C55.574856,113.186623 51.132732,116.658989 56.166645,119.961281 
	C56.166645,119.961281 56.368656,120.170738 56.196182,120.712692 
	C54.349865,121.835365 52.676022,122.416084 51.001030,122.574707 
	C51.508465,116.886787 46.143677,112.268997 49.274586,106.678802 
	C49.414722,106.428596 48.759995,105.825737 48.713074,105.363045 
	C48.429714,102.569084 48.215622,99.768105 47.988258,96.587875 
	C48.326908,94.475098 48.655663,92.743919 48.984413,91.012733 
	C50.623737,88.217369 52.263062,85.422012 54.210533,82.424286 
z"/>
<path fill="#1D6394" opacity="1.000000" stroke="none" 
	d="
M74.498711,83.117050 
	C72.835609,82.944084 71.390594,82.761780 71.002594,82.712830 
	C71.002594,76.647537 70.955849,71.119392 71.020432,65.592560 
	C71.058144,62.364670 73.705475,59.112019 70.846970,55.494526 
	C70.798119,55.071274 70.849213,55.021210 71.096786,54.876598 
	C71.568619,54.478996 71.792885,54.226002 72.017151,53.973007 
	C72.017151,53.973011 72.009872,54.013432 72.438446,54.020233 
	C76.607254,54.673405 80.347473,55.319775 83.671303,55.979980 
	C81.841064,57.175812 80.076294,58.125576 79.101730,59.598270 
	C77.867859,61.462856 77.276665,63.752743 76.136047,66.519608 
	C80.276718,69.073570 75.975494,72.156441 74.004089,75.578453 
	C76.532074,74.956650 78.362946,74.506317 80.193817,74.055977 
	C78.703468,76.699173 77.213127,79.342377 75.582123,82.303543 
	C75.209671,82.798141 74.968109,82.960205 74.498711,83.117050 
z"/>
<path fill="#225EA3" opacity="1.000000" stroke="none" 
	d="
M90.466408,138.027313 
	C95.018227,136.556015 99.279190,134.920929 103.689552,134.005814 
	C105.829765,133.561722 108.249786,134.466080 110.543129,134.759964 
	C110.601044,135.290405 110.658958,135.820831 110.716873,136.351273 
	C109.325569,136.890625 107.934258,137.429962 106.180511,138.029694 
	C99.882729,135.646881 95.104919,138.948715 95.251671,145.246155 
	C95.374527,150.518112 95.258842,155.795639 94.879684,161.752960 
	C94.335503,163.584732 94.160416,164.734222 93.985336,165.883728 
	C93.202866,166.246643 92.420387,166.609558 91.365097,166.554840 
	C90.727966,163.142944 90.149551,160.156128 90.044945,157.152817 
	C89.842178,151.331406 89.905952,145.500717 89.859276,139.673874 
	C89.985191,139.169159 90.111107,138.664444 90.466408,138.027313 
z"/>
<path fill="#263247" opacity="1.000000" stroke="none" 
	d="
M84.087700,55.966148 
	C80.347473,55.319775 76.607254,54.673405 72.418472,54.015484 
	C72.123016,53.702244 72.276108,53.400555 72.637680,52.950039 
	C78.898186,50.770111 85.016350,49.803280 91.976501,51.838181 
	C93.063454,52.086514 93.483498,52.150459 93.903542,52.214409 
	C93.903542,52.214409 93.882294,52.197742 93.873932,52.217846 
	C97.164848,54.260757 100.464142,56.283566 103.854095,58.631931 
	C99.559471,60.265350 95.174179,61.573208 90.201698,62.747795 
	C87.772247,60.398399 85.929977,58.182274 84.087700,55.966148 
z"/>
<path fill="#1A6A9D" opacity="1.000000" stroke="none" 
	d="
M83.671303,55.979980 
	C85.929977,58.182274 87.772247,60.398399 89.861374,62.850620 
	C86.991859,66.631767 83.875481,70.176819 80.476456,73.888931 
	C78.362946,74.506317 76.532074,74.956650 74.004089,75.578453 
	C75.975494,72.156441 80.276718,69.073570 76.136047,66.519608 
	C77.276665,63.752743 77.867859,61.462856 79.101730,59.598270 
	C80.076294,58.125576 81.841064,57.175812 83.671303,55.979980 
z"/>
<path fill="#28466F" opacity="1.000000" stroke="none" 
	d="
M51.002178,122.996796 
	C52.676022,122.416084 54.349865,121.835365 56.152290,120.851418 
	C56.280872,120.448189 56.718407,120.671219 56.885445,121.127647 
	C57.361591,122.064354 57.670700,122.544632 57.979805,123.024910 
	C57.979805,123.024910 57.948441,123.492615 57.940536,123.726952 
	C53.275681,124.013580 48.613518,124.228973 43.962963,124.080589 
	C36.676849,123.848114 32.815296,117.051453 36.259365,110.597626 
	C37.664829,107.963936 39.396713,105.504433 41.348763,102.854385 
	C41.717422,102.743073 42.023693,103.023132 41.970985,103.382751 
	C41.905334,105.274384 41.679413,106.841904 41.927551,108.330383 
	C42.337093,110.787102 43.510086,113.184631 43.553490,115.621498 
	C43.682068,122.839989 43.527702,122.842735 51.002178,122.996796 
z"/>
<path fill="#506E91" opacity="1.000000" stroke="none" 
	d="
M55.500832,177.844177 
	C55.588165,176.475525 55.320415,175.234955 55.820095,174.578842 
	C56.795616,173.297882 58.200203,172.343704 59.427132,171.254211 
	C60.231255,172.749359 61.109421,174.211441 61.799877,175.757355 
	C62.045959,176.308319 62.055790,177.168274 61.796516,177.705139 
	C60.840950,179.683746 59.727489,181.586090 58.673424,183.517136 
	C57.613148,181.756882 56.552868,179.996643 55.500832,177.844177 
z"/>
<path fill="#D9E8F5" opacity="1.000000" stroke="none" 
	d="
M164.136887,166.917297 
	C164.264862,165.088135 165.266815,163.295563 165.311081,161.479630 
	C165.520401,152.893478 165.467911,144.300934 165.665970,135.335754 
	C166.210541,135.995193 166.922791,137.026093 166.933884,138.064453 
	C167.024200,146.528610 167.076767,154.996399 166.875412,163.456757 
	C166.847336,164.636505 165.373947,165.781845 164.136887,166.917297 
z"/>
<path fill="#43688F" opacity="1.000000" stroke="none" 
	d="
M106.344444,174.455902 
	C107.187325,173.937683 108.053169,173.083298 109.488167,171.667313 
	C110.606987,173.441772 111.869286,175.443787 113.636536,178.246658 
	C108.127304,176.090530 109.049904,181.326294 106.448990,184.356247 
	C105.584732,179.684555 104.896774,175.965881 104.208824,172.247192 
	C104.508026,172.104797 104.807228,171.962402 105.106438,171.819992 
	C105.526756,172.586594 105.947075,173.353180 106.344444,174.455902 
z"/>
<path fill="#2B5D94" opacity="1.000000" stroke="none" 
	d="
M89.550247,139.941238 
	C89.905952,145.500717 89.842178,151.331406 90.044945,157.152817 
	C90.149551,160.156128 90.727966,163.142944 91.037529,166.485886 
	C89.989571,165.699402 88.122681,164.547760 88.143745,163.431747 
	C88.289963,155.686554 88.828537,147.948761 89.550247,139.941238 
z"/>
<path fill="#577599" opacity="1.000000" stroke="none" 
	d="
M41.143658,178.879074 
	C37.828190,173.465363 37.894432,172.919983 42.153847,171.230042 
	C42.935314,174.136902 43.902149,177.005814 44.389462,179.953979 
	C44.552528,180.940506 43.754585,182.487076 42.905834,183.111572 
	C42.237442,183.603363 40.230801,183.455322 39.870552,182.904053 
	C39.360611,182.123688 39.818916,180.710571 40.202187,179.809921 
	C40.878365,180.574203 41.215748,181.096451 41.553127,181.618713 
	C41.796185,181.461334 42.039242,181.303970 42.282299,181.146591 
	C41.902752,180.390747 41.523205,179.634918 41.143658,178.879074 
z"/>
<path fill="#EFB32B" opacity="1.000000" stroke="none" 
	d="
M68.999916,123.023361 
	C68.429153,119.534180 69.700478,117.310173 73.585663,116.485947 
	C75.127197,117.638527 76.419136,119.015121 77.774521,121.048569 
	C74.891945,122.144737 71.945930,122.584053 68.999916,123.023361 
z"/>
<path fill="#476A90" opacity="1.000000" stroke="none" 
	d="
M126.286179,175.446869 
	C131.516617,175.832901 130.406219,179.769913 130.913925,182.421143 
	C128.879089,182.421143 127.053268,182.421143 124.788223,182.421143 
	C125.150887,180.477600 125.592285,178.112137 126.286179,175.446869 
z"/>
<path fill="#D9E8F5" opacity="1.000000" stroke="none" 
	d="
M142.992004,166.381531 
	C148.017197,167.634705 152.940552,168.274750 157.217651,164.490570 
	C158.968292,165.259979 160.654312,166.000992 162.688080,166.845795 
	C156.501434,167.324112 149.967377,167.706177 143.429886,168.015457 
	C143.307388,168.021255 143.144028,167.163620 142.992004,166.381531 
z"/>
<path fill="#E0EFF7" opacity="1.000000" stroke="none" 
	d="
M164.017838,183.470932 
	C163.428787,184.265015 162.839737,185.059097 162.250687,185.853180 
	C160.885559,184.774323 158.477722,183.798233 158.359268,182.596466 
	C158.056366,179.523636 158.773041,176.350311 159.519531,173.551270 
	C159.957169,176.821304 159.957169,179.757248 159.957169,182.963547 
	C161.516937,183.158447 162.767395,183.314697 164.017838,183.470932 
z"/>
<path fill="#E0EFF7" opacity="1.000000" stroke="none" 
	d="
M162.177521,171.971283 
	C163.237000,171.770905 164.296478,171.570526 164.917404,171.453094 
	C164.917404,174.944153 164.917404,178.195084 164.457092,181.770630 
	C163.312775,181.269943 162.111481,180.485382 162.042648,179.611588 
	C161.843491,177.084045 162.099930,174.520615 162.177521,171.971283 
z"/>
<path fill="#456482" opacity="1.000000" stroke="none" 
	d="
M162.037445,171.712341 
	C162.099930,174.520615 161.843491,177.084045 162.042648,179.611588 
	C162.111481,180.485382 163.312775,181.269943 164.407410,182.195953 
	C164.673828,182.581116 164.491196,182.838287 164.143997,183.269562 
	C162.767395,183.314697 161.516937,183.158447 159.957169,182.963547 
	C159.957169,179.757248 159.957169,176.821304 159.890869,173.428848 
	C160.515488,172.466034 161.206421,171.959702 162.037445,171.712341 
z"/>
<path fill="#F0AE25" opacity="1.000000" stroke="none" 
	d="
M98.993286,16.996752 
	C97.982498,17.005987 96.971718,17.015223 95.583267,17.039906 
	C98.800240,13.856510 102.405151,14.401569 106.218689,17.325874 
	C106.421600,17.626076 106.176620,17.845976 105.704956,17.941162 
	C103.153290,17.689816 101.073288,17.343285 98.993286,16.996752 
z"/>
<path fill="#D9E8F5" opacity="1.000000" stroke="none" 
	d="
M164.813858,131.934662 
	C159.531937,132.282455 154.227112,132.225128 148.453400,132.147430 
	C153.561630,131.223923 159.076248,128.562653 164.813858,131.934662 
z"/>
<path fill="#F7E3A3" opacity="1.000000" stroke="none" 
	d="
M67.291443,124.523895 
	C67.120781,124.195503 67.287498,124.106117 68.189468,123.999092 
	C73.870331,123.718025 78.815933,123.454597 83.761536,123.191170 
	C84.635445,123.319405 85.509354,123.447639 86.383263,123.575874 
	C86.379166,123.971550 86.375069,124.367218 86.370972,124.762894 
	C80.123589,124.762894 73.876205,124.762894 67.291443,124.523895 
z"/>
<path fill="#DBB451" opacity="1.000000" stroke="none" 
	d="
M83.430954,123.111038 
	C78.815933,123.454597 73.870331,123.718025 68.462326,123.921204 
	C68.135483,123.586792 68.334091,123.370529 68.797829,123.117767 
	C71.945930,122.584053 74.891945,122.144737 77.947433,121.318848 
	C79.738075,121.631813 81.419228,122.331352 83.430954,123.111038 
z"/>
<path fill="#4E6C8C" opacity="1.000000" stroke="none" 
	d="
M145.052383,172.903366 
	C148.877594,171.310593 147.928589,174.365936 147.895172,176.045853 
	C147.854340,178.098068 147.343445,180.140915 146.704712,182.492737 
	C145.889252,181.565262 145.404892,180.332870 145.161194,178.850418 
	C145.505020,178.154068 145.608200,177.707779 145.799225,176.937698 
	C145.608841,175.377045 145.330612,174.140213 145.052383,172.903366 
z"/>
<path fill="#D9E8F5" opacity="1.000000" stroke="none" 
	d="
M136.445511,152.375427 
	C137.471283,155.364212 138.283234,158.685928 139.198334,162.366562 
	C138.208099,161.500137 136.521530,160.424820 136.164597,159.013260 
	C135.666443,157.043243 136.161606,154.822067 136.445511,152.375427 
z"/>
<path fill="#375B82" opacity="1.000000" stroke="none" 
	d="
M145.711365,177.261505 
	C145.608200,177.707779 145.505020,178.154068 144.832626,178.999466 
	C144.174744,180.593765 144.086075,181.788940 143.997421,182.984116 
	C143.890076,179.446915 143.782730,175.909698 143.855911,173.025116 
	C144.594742,174.872345 145.153046,176.066925 145.711365,177.261505 
z"/>
<path fill="#28466F" opacity="1.000000" stroke="none" 
	d="
M48.649467,91.075821 
	C48.655663,92.743919 48.326908,94.475098 47.635048,96.596024 
	C46.570408,97.045464 45.868874,97.105164 45.114319,97.113739 
	C45.061302,97.062607 44.954529,96.961113 44.954529,96.961113 
	C46.074528,95.020378 47.194523,93.079651 48.649467,91.075821 
z"/>
<path fill="#28466F" opacity="1.000000" stroke="none" 
	d="
M41.567169,102.599953 
	C42.415554,100.751419 43.414188,99.045998 44.683678,97.150848 
	C44.954529,96.961113 45.061302,97.062607 45.061619,97.480873 
	C44.049187,99.607132 43.036438,101.315132 42.023689,103.023132 
	C42.023693,103.023132 41.717422,102.743073 41.567169,102.599953 
z"/>
<path fill="#C5E4FA" opacity="1.000000" stroke="none" 
	d="
M145.799225,176.937698 
	C145.153046,176.066925 144.594742,174.872345 144.101318,173.305405 
	C144.166183,172.933060 144.610214,172.926575 144.831299,172.914978 
	C145.330612,174.140213 145.608841,175.377045 145.799225,176.937698 
z"/>
<path fill="#BAE2FB" opacity="1.000000" stroke="none" 
	d="
M144.178284,183.218582 
	C144.086075,181.788940 144.174744,180.593765 144.591965,179.249542 
	C145.404892,180.332870 145.889252,181.565262 146.684753,182.919785 
	C146.116989,183.178970 145.238068,183.316010 144.178284,183.218582 
z"/>
<path fill="#D9E8F5" opacity="1.000000" stroke="none" 
	d="
M147.099426,132.143005 
	C146.278625,132.812973 145.036972,133.427719 143.454407,134.103973 
	C144.301849,133.472916 145.490204,132.780350 147.099426,132.143005 
z"/>
<path fill="#F7E3A3" opacity="1.000000" stroke="none" 
	d="
M60.980274,123.803215 
	C62.075718,123.888817 63.171165,123.974411 64.662117,124.179520 
	C63.204437,124.414299 61.351246,124.529556 59.255810,124.375610 
	C59.170559,124.027283 59.327560,123.948151 59.983856,123.873001 
	C60.648857,123.852402 60.814568,123.827812 60.980274,123.803215 
z"/>
<path fill="#D9E8F5" opacity="1.000000" stroke="none" 
	d="
M136.881653,142.239471 
	C137.072433,143.421204 136.972900,144.791260 136.776443,146.562012 
	C136.650131,145.451065 136.620728,143.939423 136.881653,142.239471 
z"/>
<path fill="#2B5D94" opacity="1.000000" stroke="none" 
	d="
M94.363022,165.806091 
	C94.160416,164.734222 94.335503,163.584732 94.781860,162.212448 
	C94.948997,163.235931 94.844849,164.482208 94.363022,165.806091 
z"/>
<path fill="#D9E8F5" opacity="1.000000" stroke="none" 
	d="
M137.766357,140.194626 
	C137.878296,140.594284 137.738983,141.176010 137.362503,141.946915 
	C137.255264,141.549622 137.385193,140.963165 137.766357,140.194626 
z"/>
<path fill="#F19C24" opacity="1.000000" stroke="none" 
	d="
M154.091461,94.644753 
	C153.861740,94.669632 153.550720,94.379860 153.159561,93.769943 
	C153.389664,93.743233 153.699905,94.036674 154.091461,94.644753 
z"/>
<path fill="#D9E8F5" opacity="1.000000" stroke="none" 
	d="
M141.232239,165.013794 
	C141.454529,164.922485 141.800491,165.121201 142.304886,165.578674 
	C142.094177,165.659561 141.725052,165.481689 141.232239,165.013794 
z"/>
<path fill="#D9E8F5" opacity="1.000000" stroke="none" 
	d="
M139.274750,162.994324 
	C139.500961,162.929016 139.789413,163.146149 140.175446,163.624573 
	C139.961014,163.682831 139.648987,163.479813 139.274750,162.994324 
z"/>
<path fill="#D9E8F5" opacity="1.000000" stroke="none" 
	d="
M139.769333,137.133453 
	C139.845413,137.310043 139.693436,137.617691 139.315002,138.056824 
	C139.239456,137.880356 139.390366,137.572449 139.769333,137.133453 
z"/>
<path fill="#D9E8F5" opacity="1.000000" stroke="none" 
	d="
M141.824707,135.109833 
	C141.866653,135.298141 141.674820,135.570496 141.233612,135.901215 
	C141.092804,135.630127 141.295029,135.374908 141.824707,135.109833 
z"/>
<path fill="#D9E8F5" opacity="1.000000" stroke="none" 
	d="
M142.911224,134.170502 
	C142.956772,134.374603 142.748611,134.650833 142.281326,134.991486 
	C142.233978,134.784821 142.445755,134.513718 142.911224,134.170502 
z"/>
<path fill="#D9E8F5" opacity="1.000000" stroke="none" 
	d="
M165.912003,133.891998 
	C165.721512,133.979584 165.464050,133.669800 165.448792,133.469421 
	C165.656525,133.447510 165.879517,133.625961 165.912003,133.891998 
z"/>
<path fill="#263247" opacity="1.000000" stroke="none" 
	d="
M71.750259,54.038872 
	C71.792885,54.226002 71.568619,54.478996 71.132507,54.874767 
	C71.108223,54.713280 71.295799,54.409008 71.750259,54.038872 
z"/>
<path fill="#E9EFF1" opacity="1.000000" stroke="none" 
	d="
M42.030685,154.471741 
	C42.019539,152.867523 42.123863,151.690125 42.000858,150.536942 
	C41.013348,141.278900 45.232819,136.794083 56.427460,139.421661 
	C56.427460,144.330444 56.791874,149.312881 56.315121,154.213501 
	C55.915245,158.323853 52.971157,160.716064 48.782848,160.827713 
	C44.904217,160.931122 42.591770,158.816452 42.030685,154.471741 
z"/>
<path fill="#F3F2F0" opacity="1.000000" stroke="none" 
	d="
M153.984329,159.856506 
	C150.398041,162.255707 147.899231,159.764206 145.090546,157.241150 
	C145.889725,150.984970 144.139297,144.925735 147.868286,139.830566 
	C147.868286,139.830566 148.011719,139.892914 148.400848,139.921707 
	C149.771378,139.955688 150.774536,140.096451 151.730453,139.942978 
	C156.239731,139.219055 157.545502,141.341064 157.077011,145.503555 
	C156.604858,149.698608 156.415741,153.925537 156.102615,158.138489 
	C156.102615,158.138489 156.039886,158.057312 155.841064,158.158905 
	C155.449387,158.545532 155.256531,158.830566 155.063660,159.115601 
	C155.063660,159.115601 155.036377,159.028229 154.839752,159.101440 
	C154.342682,159.323807 154.123093,159.551102 153.984329,159.856506 
z"/>
<path fill="#CFE2F1" opacity="1.000000" stroke="none" 
	d="
M156.496552,158.077332 
	C156.415741,153.925537 156.604858,149.698608 157.077011,145.503555 
	C157.545502,141.341064 156.239731,139.219055 151.730453,139.942978 
	C150.774536,140.096451 149.771378,139.955688 148.324646,139.905136 
	C148.570389,139.518204 149.248657,139.003769 149.997604,138.861664 
	C158.022125,137.339066 158.959579,137.910385 158.543091,146.061325 
	C158.340164,150.032730 160.837875,154.531891 156.496552,158.077332 
z"/>
<path fill="#CFE2F1" opacity="1.000000" stroke="none" 
	d="
M147.509521,139.907745 
	C144.139297,144.925735 145.889725,150.984970 144.864166,156.991104 
	C143.738403,151.356842 141.710617,145.168304 147.509521,139.907745 
z"/>
<path fill="#CFE2F1" opacity="1.000000" stroke="none" 
	d="
M154.241760,159.855988 
	C154.123093,159.551102 154.342682,159.323807 154.879135,159.124756 
	C154.909836,159.335068 154.704514,159.595276 154.241760,159.855988 
z"/>
<path fill="#CFE2F1" opacity="1.000000" stroke="none" 
	d="
M155.325562,159.046326 
	C155.256531,158.830566 155.449387,158.545532 155.890869,158.171143 
	C155.955490,158.380219 155.771484,158.678635 155.325562,159.046326 
z"/>
<path fill="#F4B318" opacity="1.000000" stroke="none" 
	d="
M98.981651,17.379114 
	C101.073288,17.343285 103.153290,17.689816 105.583199,18.051918 
	C107.849716,22.252203 108.631790,26.933710 112.436897,30.285677 
	C113.555550,31.271114 113.454811,34.142262 113.215530,36.062279 
	C112.732246,39.940239 111.626686,43.739136 111.103157,47.614597 
	C110.962891,48.652950 112.076309,49.822552 112.474495,50.979965 
	C113.223862,53.158215 113.871574,55.371437 114.561546,57.570122 
	C112.718422,57.545471 110.677444,58.022091 109.074341,57.389336 
	C105.963921,56.161644 103.099617,54.310417 100.059380,52.358295 
	C99.895721,51.032795 100.003021,49.295612 99.687035,49.214867 
	C94.118874,47.791977 93.860878,44.324100 94.823616,39.373375 
	C95.678238,34.978565 94.728569,30.252428 95.389923,25.793356 
	C95.804146,23.000505 97.725113,20.431126 98.981651,17.379114 
z"/>
<path fill="#F0AE25" opacity="1.000000" stroke="none" 
	d="
M93.827515,51.969208 
	C93.483498,52.150459 93.063454,52.086514 92.364258,51.865211 
	C92.640556,51.713242 93.196022,51.718624 93.827515,51.969208 
z"/>
<path fill="#28466F" opacity="1.000000" stroke="none" 
	d="
M56.197094,119.545609 
	C51.132732,116.658989 55.574856,113.186623 55.996258,109.400665 
	C56.477383,109.013786 56.946289,109.012878 57.764175,109.060799 
	C57.484615,112.449730 56.856079,115.789825 56.197094,119.545609 
z"/>
<path fill="#28466F" opacity="1.000000" stroke="none" 
	d="
M58.392166,108.944633 
	C58.617779,107.812042 59.136028,106.536903 60.047714,105.339973 
	C59.855698,106.546150 59.270252,107.674118 58.392166,108.944633 
z"/>
<path fill="#DBB451" opacity="1.000000" stroke="none" 
	d="
M57.983536,122.728233 
	C57.670700,122.544632 57.361591,122.064354 57.072433,121.286804 
	C57.390678,121.470200 57.688972,121.950882 57.983536,122.728233 
z"/>
<path fill="#28466F" opacity="1.000000" stroke="none" 
	d="
M60.613472,105.206512 
	C60.442329,104.991997 60.519455,104.646439 60.835167,104.159851 
	C61.003086,104.371033 60.932411,104.723251 60.613472,105.206512 
z"/>
<path fill="#DBB451" opacity="1.000000" stroke="none" 
	d="
M60.886589,123.677193 
	C60.814568,123.827812 60.648857,123.852402 60.240417,123.811951 
	C60.216671,123.442436 60.481747,123.377190 60.886589,123.677193 
z"/>
<path fill="#16437B" opacity="1.000000" stroke="none" 
	d="
M41.970982,103.382751 
	C43.036438,101.315132 44.049187,99.607132 45.114639,97.531998 
	C45.868874,97.105164 46.570408,97.045464 47.625153,96.977615 
	C48.215622,99.768105 48.429714,102.569084 48.713074,105.363045 
	C48.759995,105.825737 49.414722,106.428596 49.274586,106.678802 
	C46.143677,112.268997 51.508465,116.886787 51.001030,122.574707 
	C43.527702,122.842735 43.682068,122.839989 43.553490,115.621498 
	C43.510086,113.184631 42.337093,110.787102 41.927551,108.330383 
	C41.679413,106.841904 41.905334,105.274384 41.970982,103.382751 
z"/>
<path fill="#F2F1EE" opacity="1.000000" stroke="none" 
	d="
M40.967766,179.013062 
	C41.523205,179.634918 41.902752,180.390747 42.282299,181.146591 
	C42.039242,181.303970 41.796185,181.461334 41.553127,181.618713 
	C41.215748,181.096451 40.878365,180.574203 40.489738,179.732422 
	C40.438496,179.412903 40.791874,179.147049 40.967766,179.013062 
z"/>
</svg>